<svg xmlns="http://www.w3.org/2000/svg" width="1000" height="590" viewBox="0 0 1000 590">
<defs>
  <marker id="arrow" viewBox="0 0 10 10" refX="9" refY="5" markerWidth="8" markerHeight="8" orient="auto-start-reverse">
    <path d="M 0 0 L 10 5 L 0 10 z" fill="#475569"/>
  </marker>
  <filter id="shadow" x="-8%" y="-8%" width="120%" height="130%">
    <feDropShadow dx="0" dy="3" stdDeviation="3" flood-color="#0f172a" flood-opacity="0.10"/>
  </filter>
</defs>
<rect width="100%" height="100%" rx="20" fill="#f8fafc"/>
<text x="40" y="50" font-family="Segoe UI, Arial" font-size="26" font-weight="700" fill="#0f172a">Relacje aktorow Ray</text>
<rect x="55" y="85" width="200" height="78" rx="12" fill="#f8fafc" stroke="#64748b" stroke-width="2" filter="url(#shadow)"/>
<text x="69" y="111" font-family="Segoe UI,Arial" font-size="16" font-weight="700" fill="#0f172a">AdminActor</text>
<text x="69" y="131" font-family="Segoe UI,Arial" font-size="13" fill="#475569">upsert_hotel()</text>
<rect x="570" y="76" width="256" height="96" rx="12" fill="#ede9fe" stroke="#8b5cf6" stroke-width="2" filter="url(#shadow)"/>
<text x="584" y="102" font-family="Segoe UI,Arial" font-size="16" font-weight="700" fill="#0f172a">BookingCoordinator</text>
<text x="584" y="122" font-family="Segoe UI,Arial" font-size="13" fill="#475569">book_room()</text>
<text x="584" y="141" font-family="Segoe UI,Arial" font-size="13" fill="#475569">cancel_booking()  idempotency</text>
<rect x="55" y="268" width="202" height="96" rx="12" fill="#e0f2fe" stroke="#0284c7" stroke-width="2" filter="url(#shadow)"/>
<text x="69" y="294" font-family="Segoe UI,Arial" font-size="16" font-weight="700" fill="#0f172a">InventoryActor</text>
<text x="69" y="314" font-family="Segoe UI,Arial" font-size="13" fill="#475569">search_hotels()</text>
<text x="69" y="333" font-family="Segoe UI,Arial" font-size="13" fill="#475569">hold / confirm / cancel</text>
<rect x="330" y="268" width="185" height="78" rx="12" fill="#fee2e2" stroke="#ef4444" stroke-width="2" filter="url(#shadow)"/>
<text x="344" y="294" font-family="Segoe UI,Arial" font-size="16" font-weight="700" fill="#0f172a">PaymentActor</text>
<text x="344" y="314" font-family="Segoe UI,Arial" font-size="13" fill="#475569">process_payment()</text>
<text x="344" y="333" font-family="Segoe UI,Arial" font-size="13" fill="#475569">refund_payment()</text>
<rect x="590" y="268" width="215" height="78" rx="12" fill="#dcfce7" stroke="#16a34a" stroke-width="2" filter="url(#shadow)"/>
<text x="604" y="294" font-family="Segoe UI,Arial" font-size="16" font-weight="700" fill="#0f172a">ReservHistory</text>
<text x="604" y="314" font-family="Segoe UI,Arial" font-size="13" fill="#475569">add_reservation()</text>
<text x="604" y="333" font-family="Segoe UI,Arial" font-size="13" fill="#475569">list_user_reservations()</text>
<rect x="55" y="466" width="202" height="96" rx="12" fill="#dbeafe" stroke="#2563eb" stroke-width="2" filter="url(#shadow)"/>
<text x="69" y="492" font-family="Segoe UI,Arial" font-size="16" font-weight="700" fill="#0f172a">HotelActors</text>
<text x="69" y="512" font-family="Segoe UI,Arial" font-size="13" fill="#475569">try_hold()  confirm_hold()</text>
<text x="69" y="531" font-family="Segoe UI,Arial" font-size="13" fill="#475569">cancel_reservation()</text>
<rect x="330" y="466" width="185" height="78" rx="12" fill="#fef3c7" stroke="#f59e0b" stroke-width="2" filter="url(#shadow)"/>
<text x="344" y="492" font-family="Segoe UI,Arial" font-size="16" font-weight="700" fill="#0f172a">AuditLogActor</text>
<text x="344" y="512" font-family="Segoe UI,Arial" font-size="13" fill="#475569">log()</text>
<text x="344" y="531" font-family="Segoe UI,Arial" font-size="13" fill="#475569">list_logs()</text>
<rect x="590" y="466" width="185" height="78" rx="12" fill="#fce7f3" stroke="#ec4899" stroke-width="2" filter="url(#shadow)"/>
<text x="604" y="492" font-family="Segoe UI,Arial" font-size="16" font-weight="700" fill="#0f172a">MetricsActor</text>
<text x="604" y="512" font-family="Segoe UI,Arial" font-size="13" fill="#475569">inc_*()  observe_*()</text>
<text x="604" y="531" font-family="Segoe UI,Arial" font-size="13" fill="#475569">get_metrics()</text>
<path d="M 155,163 L 155,268" stroke="#475569" stroke-width="2" fill="none" marker-end="url(#arrow)"/><rect x="144" y="203" width="72" height="22" rx="11" fill="#fff" stroke="#dde2ee" stroke-width="1.5"/><text x="180" y="220" text-anchor="middle" font-family="Segoe UI,Arial" font-size="12" fill="#334155">admin</text>
<path d="M 570,138 L 272,138 L 272,316 L 257,316" stroke="#475569" stroke-width="2" fill="none" marker-end="url(#arrow)"/><rect x="374" y="114" width="72" height="22" rx="11" fill="#fff" stroke="#dde2ee" stroke-width="1.5"/><text x="410" y="131" text-anchor="middle" font-family="Segoe UI,Arial" font-size="12" fill="#334155">hold/confirm</text>
<path d="M 695,172 L 695,248 L 422,248 L 422,268" stroke="#475569" stroke-width="2" fill="none" marker-end="url(#arrow)"/><rect x="522" y="224" width="72" height="22" rx="11" fill="#fff" stroke="#dde2ee" stroke-width="1.5"/><text x="558" y="241" text-anchor="middle" font-family="Segoe UI,Arial" font-size="12" fill="#334155">payment</text>
<path d="M 718,172 L 718,252 L 697,252 L 697,268" stroke="#475569" stroke-width="2" fill="none" marker-end="url(#arrow)"/><rect x="671" y="228" width="72" height="22" rx="11" fill="#fff" stroke="#dde2ee" stroke-width="1.5"/><text x="707" y="245" text-anchor="middle" font-family="Segoe UI,Arial" font-size="12" fill="#334155">history</text>
<path d="M 156,364 L 156,466" stroke="#475569" stroke-width="2" fill="none" marker-end="url(#arrow)"/><rect x="148" y="403" width="72" height="22" rx="11" fill="#fff" stroke="#dde2ee" stroke-width="1.5"/><text x="184" y="420" text-anchor="middle" font-family="Segoe UI,Arial" font-size="12" fill="#334155">delegates</text>
<path d="M 826,138 L 880,138 L 880,480 L 515,480 L 515,466" stroke="#475569" stroke-width="2" fill="none" marker-end="url(#arrow)"/><rect x="839" y="298" width="72" height="22" rx="11" fill="#fff" stroke="#dde2ee" stroke-width="1.5"/><text x="875" y="315" text-anchor="middle" font-family="Segoe UI,Arial" font-size="12" fill="#334155">audit</text>
<path d="M 826,158 L 900,158 L 900,505 L 775,505 L 775,466" stroke="#475569" stroke-width="2" fill="none" marker-end="url(#arrow)"/><rect x="859" y="318" width="72" height="22" rx="11" fill="#fff" stroke="#dde2ee" stroke-width="1.5"/><text x="895" y="335" text-anchor="middle" font-family="Segoe UI,Arial" font-size="12" fill="#334155">metrics</text>
</svg>