<svg xmlns="http://www.w3.org/2000/svg" width="1200" height="760" viewBox="0 0 1200 760">
<defs>
  <marker id="arrow" viewBox="0 0 10 10" refX="9" refY="5" markerWidth="8" markerHeight="8" orient="auto-start-reverse">
    <path d="M 0 0 L 10 5 L 0 10 z" fill="#334155"/>
  </marker>
  <filter id="shadow" x="-10%" y="-10%" width="120%" height="130%">
    <feDropShadow dx="0" dy="4" stdDeviation="4" flood-color="#0f172a" flood-opacity="0.14"/>
  </filter>
</defs>
<rect width="100%" height="100%" rx="24" fill="#f8fafc"/>
<text x="40" y="52" font-family="Segoe UI, Arial" font-size="30" font-weight="700" fill="#0f172a">Relacje aktorow Ray</text>
<rect x="470" y="100" width="260" height="115" rx="18" fill="#ede9fe" stroke="#8b5cf6" stroke-width="2" filter="url(#shadow)"/>
<text x="488" y="132" font-family="Segoe UI, Arial" font-size="19" font-weight="700" fill="#0f172a">BookingCoordinatorActor</text>
<text x="488" y="160" font-family="Segoe UI, Arial" font-size="15" fill="#475569">book_room()</text>
<text x="488" y="182" font-family="Segoe UI, Arial" font-size="15" fill="#475569">cancel_booking()</text>
<rect x="90" y="275" width="230" height="105" rx="18" fill="#e0f2fe" stroke="#0284c7" stroke-width="2" filter="url(#shadow)"/>
<text x="108" y="307" font-family="Segoe UI, Arial" font-size="19" font-weight="700" fill="#0f172a">InventoryActor</text>
<text x="108" y="335" font-family="Segoe UI, Arial" font-size="15" fill="#475569">search / hold / confirm</text>
<text x="108" y="357" font-family="Segoe UI, Arial" font-size="15" fill="#475569">registry HotelActor</text>
<rect x="90" y="500" width="230" height="125" rx="18" fill="#dbeafe" stroke="#2563eb" stroke-width="2" filter="url(#shadow)"/>
<text x="108" y="532" font-family="Segoe UI, Arial" font-size="19" font-weight="700" fill="#0f172a">HotelActor</text>
<text x="108" y="560" font-family="Segoe UI, Arial" font-size="15" fill="#475569">rooms</text>
<text x="108" y="582" font-family="Segoe UI, Arial" font-size="15" fill="#475569">holds with TTL</text>
<text x="108" y="604" font-family="Segoe UI, Arial" font-size="15" fill="#475569">local reservations</text>
<rect x="470" y="300" width="230" height="95" rx="18" fill="#fee2e2" stroke="#ef4444" stroke-width="2" filter="url(#shadow)"/>
<text x="488" y="332" font-family="Segoe UI, Arial" font-size="19" font-weight="700" fill="#0f172a">PaymentActor</text>
<text x="488" y="360" font-family="Segoe UI, Arial" font-size="15" fill="#475569">process_payment()</text>
<text x="488" y="382" font-family="Segoe UI, Arial" font-size="15" fill="#475569">refund_payment()</text>
<rect x="800" y="290" width="250" height="105" rx="18" fill="#dcfce7" stroke="#22c55e" stroke-width="2" filter="url(#shadow)"/>
<text x="818" y="322" font-family="Segoe UI, Arial" font-size="19" font-weight="700" fill="#0f172a">ReservationHistoryActor</text>
<text x="818" y="350" font-family="Segoe UI, Arial" font-size="15" fill="#475569">by_user</text>
<text x="818" y="372" font-family="Segoe UI, Arial" font-size="15" fill="#475569">by_id</text>
<rect x="455" y="535" width="245" height="105" rx="18" fill="#fef3c7" stroke="#f59e0b" stroke-width="2" filter="url(#shadow)"/>
<text x="473" y="567" font-family="Segoe UI, Arial" font-size="19" font-weight="700" fill="#0f172a">AuditLogActor</text>
<text x="473" y="595" font-family="Segoe UI, Arial" font-size="15" fill="#475569">log()</text>
<text x="473" y="617" font-family="Segoe UI, Arial" font-size="15" fill="#475569">list_logs()</text>
<rect x="805" y="520" width="245" height="105" rx="18" fill="#fce7f3" stroke="#ec4899" stroke-width="2" filter="url(#shadow)"/>
<text x="823" y="552" font-family="Segoe UI, Arial" font-size="19" font-weight="700" fill="#0f172a">MetricsActor</text>
<text x="823" y="580" font-family="Segoe UI, Arial" font-size="15" fill="#475569">counters</text>
<text x="823" y="602" font-family="Segoe UI, Arial" font-size="15" fill="#475569">gauges</text>
<text x="823" y="624" font-family="Segoe UI, Arial" font-size="15" fill="#475569">histograms</text>
<rect x="90" y="95" width="230" height="105" rx="18" fill="#f1f5f9" stroke="#64748b" stroke-width="2" filter="url(#shadow)"/>
<text x="108" y="127" font-family="Segoe UI, Arial" font-size="19" font-weight="700" fill="#0f172a">AdminActor</text>
<text x="108" y="155" font-family="Segoe UI, Arial" font-size="15" fill="#475569">upsert_hotel()</text>
<line x1="470" y1="160" x2="320" y2="325" stroke="#334155" stroke-width="2.2" marker-end="url(#arrow)"/><rect x="323.0" y="220.5" width="144" height="24" rx="12" fill="#ffffff" stroke="#e2e8f0"/><text x="395.0" y="237.5" text-anchor="middle" font-family="Segoe UI, Arial" font-size="13" fill="#334155">inventory</text>
<line x1="320" y1="380" x2="205" y2="500" stroke="#334155" stroke-width="2.2" marker-end="url(#arrow)"/><rect x="190.5" y="418.0" width="144" height="24" rx="12" fill="#ffffff" stroke="#e2e8f0"/><text x="262.5" y="435.0" text-anchor="middle" font-family="Segoe UI, Arial" font-size="13" fill="#334155">delegates</text>
<line x1="600" y1="215" x2="585" y2="300" stroke="#334155" stroke-width="2.2" marker-end="url(#arrow)"/><rect x="520.5" y="235.5" width="144" height="24" rx="12" fill="#ffffff" stroke="#e2e8f0"/><text x="592.5" y="252.5" text-anchor="middle" font-family="Segoe UI, Arial" font-size="13" fill="#334155">payment</text>
<line x1="730" y1="160" x2="800" y2="325" stroke="#334155" stroke-width="2.2" marker-end="url(#arrow)"/><rect x="693.0" y="220.5" width="144" height="24" rx="12" fill="#ffffff" stroke="#e2e8f0"/><text x="765.0" y="237.5" text-anchor="middle" font-family="Segoe UI, Arial" font-size="13" fill="#334155">history</text>
<line x1="590" y1="215" x2="575" y2="535" stroke="#334155" stroke-width="2.2" marker-end="url(#arrow)"/><rect x="510.5" y="353.0" width="144" height="24" rx="12" fill="#ffffff" stroke="#e2e8f0"/><text x="582.5" y="370.0" text-anchor="middle" font-family="Segoe UI, Arial" font-size="13" fill="#334155">audit</text>
<line x1="730" y1="170" x2="805" y2="560" stroke="#334155" stroke-width="2.2" marker-end="url(#arrow)"/><rect x="695.5" y="343.0" width="144" height="24" rx="12" fill="#ffffff" stroke="#e2e8f0"/><text x="767.5" y="360.0" text-anchor="middle" font-family="Segoe UI, Arial" font-size="13" fill="#334155">metrics</text>
<line x1="205" y1="200" x2="205" y2="275" stroke="#334155" stroke-width="2.2" marker-end="url(#arrow)"/><rect x="133.0" y="215.5" width="144" height="24" rx="12" fill="#ffffff" stroke="#e2e8f0"/><text x="205.0" y="232.5" text-anchor="middle" font-family="Segoe UI, Arial" font-size="13" fill="#334155">admin</text>
<line x1="320" y1="150" x2="470" y2="135" stroke="#334155" stroke-width="2.2" marker-end="url(#arrow)"/><rect x="323.0" y="120.5" width="144" height="24" rx="12" fill="#ffffff" stroke="#e2e8f0"/><text x="395.0" y="137.5" text-anchor="middle" font-family="Segoe UI, Arial" font-size="13" fill="#334155">audit</text>
</svg>