<svg xmlns="http://www.w3.org/2000/svg" width="1200" height="760" viewBox="0 0 1200 760">
<defs>
  <marker id="arrow" viewBox="0 0 10 10" refX="9" refY="5" markerWidth="8" markerHeight="8" orient="auto-start-reverse">
    <path d="M 0 0 L 10 5 L 0 10 z" fill="#334155"/>
  </marker>
  <filter id="shadow" x="-10%" y="-10%" width="120%" height="130%">
    <feDropShadow dx="0" dy="4" stdDeviation="4" flood-color="#0f172a" flood-opacity="0.14"/>
  </filter>
</defs>
<rect width="100%" height="100%" rx="24" fill="#f8fafc"/>
<text x="40" y="52" font-family="Segoe UI, Arial" font-size="30" font-weight="700" fill="#0f172a">Architektura Ray Hotel</text>
<rect x="55" y="115" width="210" height="105" rx="18" fill="#dbeafe" stroke="#60a5fa" stroke-width="2" filter="url(#shadow)"/>
<text x="73" y="147" font-family="Segoe UI, Arial" font-size="19" font-weight="700" fill="#0f172a">Browser / SPA</text>
<text x="73" y="175" font-family="Segoe UI, Arial" font-size="15" fill="#475569">frontend/index.html</text>
<text x="73" y="197" font-family="Segoe UI, Arial" font-size="15" fill="#475569">JWT + fetch API</text>
<rect x="355" y="105" width="245" height="125" rx="18" fill="#e0f2fe" stroke="#38bdf8" stroke-width="2" filter="url(#shadow)"/>
<text x="373" y="137" font-family="Segoe UI, Arial" font-size="19" font-weight="700" fill="#0f172a">FastAPI</text>
<text x="373" y="165" font-family="Segoe UI, Arial" font-size="15" fill="#475569">main.py</text>
<text x="373" y="187" font-family="Segoe UI, Arial" font-size="15" fill="#475569">routing, auth, lifecycle</text>
<rect x="710" y="95" width="420" height="150" rx="18" fill="#ede9fe" stroke="#a78bfa" stroke-width="2" filter="url(#shadow)"/>
<text x="728" y="127" font-family="Segoe UI, Arial" font-size="19" font-weight="700" fill="#0f172a">Ray cluster</text>
<text x="728" y="155" font-family="Segoe UI, Arial" font-size="15" fill="#475569">head node + worker nodes</text>
<text x="728" y="177" font-family="Segoe UI, Arial" font-size="15" fill="#475569">remote actors + scheduler</text>
<rect x="735" y="295" width="170" height="92" rx="18" fill="#ffffff" stroke="#a78bfa" stroke-width="2" filter="url(#shadow)"/>
<text x="753" y="327" font-family="Segoe UI, Arial" font-size="19" font-weight="700" fill="#0f172a">Inventory</text>
<text x="753" y="355" font-family="Segoe UI, Arial" font-size="15" fill="#475569">hotel registry</text>
<rect x="940" y="285" width="165" height="112" rx="18" fill="#ffffff" stroke="#a78bfa" stroke-width="2" filter="url(#shadow)"/>
<text x="958" y="317" font-family="Segoe UI, Arial" font-size="19" font-weight="700" fill="#0f172a">HotelActors</text>
<text x="958" y="345" font-family="Segoe UI, Arial" font-size="15" fill="#475569">availability</text>
<text x="958" y="367" font-family="Segoe UI, Arial" font-size="15" fill="#475569">holds</text>
<text x="958" y="389" font-family="Segoe UI, Arial" font-size="15" fill="#475569">reservations</text>
<rect x="690" y="445" width="205" height="110" rx="18" fill="#ffffff" stroke="#a78bfa" stroke-width="2" filter="url(#shadow)"/>
<text x="708" y="477" font-family="Segoe UI, Arial" font-size="19" font-weight="700" fill="#0f172a">BookingCoordinator</text>
<text x="708" y="505" font-family="Segoe UI, Arial" font-size="15" fill="#475569">booking saga</text>
<text x="708" y="527" font-family="Segoe UI, Arial" font-size="15" fill="#475569">rollback</text>
<text x="708" y="549" font-family="Segoe UI, Arial" font-size="15" fill="#475569">idempotency</text>
<rect x="930" y="445" width="155" height="95" rx="18" fill="#ffffff" stroke="#a78bfa" stroke-width="2" filter="url(#shadow)"/>
<text x="948" y="477" font-family="Segoe UI, Arial" font-size="19" font-weight="700" fill="#0f172a">Payment</text>
<text x="948" y="505" font-family="Segoe UI, Arial" font-size="15" fill="#475569">payment sim</text>
<text x="948" y="527" font-family="Segoe UI, Arial" font-size="15" fill="#475569">refunds</text>
<rect x="690" y="610" width="195" height="92" rx="18" fill="#ffffff" stroke="#a78bfa" stroke-width="2" filter="url(#shadow)"/>
<text x="708" y="642" font-family="Segoe UI, Arial" font-size="19" font-weight="700" fill="#0f172a">History + Audit</text>
<text x="708" y="670" font-family="Segoe UI, Arial" font-size="15" fill="#475569">reservations</text>
<text x="708" y="692" font-family="Segoe UI, Arial" font-size="15" fill="#475569">domain events</text>
<rect x="75" y="445" width="250" height="120" rx="18" fill="#dcfce7" stroke="#22c55e" stroke-width="2" filter="url(#shadow)"/>
<text x="93" y="477" font-family="Segoe UI, Arial" font-size="19" font-weight="700" fill="#0f172a">PostgreSQL</text>
<text x="93" y="505" font-family="Segoe UI, Arial" font-size="15" fill="#475569">hotels</text>
<text x="93" y="527" font-family="Segoe UI, Arial" font-size="15" fill="#475569">reservations</text>
<text x="93" y="549" font-family="Segoe UI, Arial" font-size="15" fill="#475569">audit_logs</text>
<rect x="380" y="445" width="215" height="120" rx="18" fill="#fef3c7" stroke="#f59e0b" stroke-width="2" filter="url(#shadow)"/>
<text x="398" y="477" font-family="Segoe UI, Arial" font-size="19" font-weight="700" fill="#0f172a">Monitoring</text>
<text x="398" y="505" font-family="Segoe UI, Arial" font-size="15" fill="#475569">Prometheus</text>
<text x="398" y="527" font-family="Segoe UI, Arial" font-size="15" fill="#475569">Grafana dashboard</text>
<text x="398" y="549" font-family="Segoe UI, Arial" font-size="15" fill="#475569">alerts</text>
<line x1="265" y1="165" x2="355" y2="165" stroke="#334155" stroke-width="2.2" marker-end="url(#arrow)"/><rect x="238.0" y="143.0" width="144" height="24" rx="12" fill="#ffffff" stroke="#e2e8f0"/><text x="310.0" y="160.0" text-anchor="middle" font-family="Segoe UI, Arial" font-size="13" fill="#334155">HTTP</text>
<line x1="600" y1="165" x2="710" y2="165" stroke="#334155" stroke-width="2.2" marker-end="url(#arrow)"/><rect x="583.0" y="143.0" width="144" height="24" rx="12" fill="#ffffff" stroke="#e2e8f0"/><text x="655.0" y="160.0" text-anchor="middle" font-family="Segoe UI, Arial" font-size="13" fill="#334155">ray calls</text>
<line x1="820" y1="245" x2="820" y2="295" stroke="#334155" stroke-width="2.2" marker-end="url(#arrow)"/>
<line x1="905" y1="340" x2="940" y2="340" stroke="#334155" stroke-width="2.2" marker-end="url(#arrow)"/>
<line x1="800" y1="445" x2="820" y2="387" stroke="#334155" stroke-width="2.2" marker-end="url(#arrow)"/>
<line x1="895" y1="500" x2="930" y2="500" stroke="#334155" stroke-width="2.2" marker-end="url(#arrow)"/>
<line x1="785" y1="555" x2="785" y2="610" stroke="#334155" stroke-width="2.2" marker-end="url(#arrow)"/>
<line x1="690" y1="655" x2="325" y2="505" stroke="#334155" stroke-width="2.2" marker-end="url(#arrow)"/><rect x="435.5" y="558.0" width="144" height="24" rx="12" fill="#ffffff" stroke="#e2e8f0"/><text x="507.5" y="575.0" text-anchor="middle" font-family="Segoe UI, Arial" font-size="13" fill="#334155">SQL</text>
<line x1="490" y1="445" x2="490" y2="230" stroke="#334155" stroke-width="2.2" marker-end="url(#arrow)"/><rect x="418.0" y="315.5" width="144" height="24" rx="12" fill="#ffffff" stroke="#e2e8f0"/><text x="490.0" y="332.5" text-anchor="middle" font-family="Segoe UI, Arial" font-size="13" fill="#334155">metrics</text>
</svg>