<svg xmlns="http://www.w3.org/2000/svg" width="1280" height="672" viewBox="0 0 1280 672">
<defs>
  <marker id="arrow" viewBox="0 0 10 10" refX="9" refY="5" markerWidth="8" markerHeight="8" orient="auto-start-reverse">
    <path d="M 0 0 L 10 5 L 0 10 z" fill="#475569"/>
  </marker>
  <filter id="shadow" x="-8%" y="-8%" width="120%" height="130%">
    <feDropShadow dx="0" dy="3" stdDeviation="3" flood-color="#0f172a" flood-opacity="0.10"/>
  </filter>
</defs>
<rect width="100%" height="100%" rx="20" fill="#f8fafc"/>
<text x="40" y="50" font-family="Segoe UI, Arial" font-size="26" font-weight="700" fill="#0f172a">Architektura Ray Hotel</text>
<rect x="50" y="78" width="195" height="82" rx="12" fill="#dbeafe" stroke="#60a5fa" stroke-width="2" filter="url(#shadow)"/>
<text x="64" y="104" font-family="Segoe UI,Arial" font-size="16" font-weight="700" fill="#0f172a">Browser / SPA</text>
<text x="64" y="124" font-family="Segoe UI,Arial" font-size="13" fill="#475569">frontend · JWT · fetch</text>
<rect x="310" y="78" width="205" height="82" rx="12" fill="#e0f2fe" stroke="#38bdf8" stroke-width="2" filter="url(#shadow)"/>
<text x="324" y="104" font-family="Segoe UI,Arial" font-size="16" font-weight="700" fill="#0f172a">FastAPI</text>
<text x="324" y="124" font-family="Segoe UI,Arial" font-size="13" fill="#475569">routing · auth · lifecycle</text>
<path d="M 245,119 L 310,119" stroke="#475569" stroke-width="2" fill="none" marker-end="url(#arrow)"/><rect x="241" y="95" width="72" height="22" rx="11" fill="#fff" stroke="#dde2ee" stroke-width="1.5"/><text x="277" y="112" text-anchor="middle" font-family="Segoe UI,Arial" font-size="12" fill="#334155">HTTP</text>
<rect x="38" y="198" width="1224" height="330" rx="16" fill="#faf5ff" stroke="#c4b5fd" stroke-width="1.5" stroke-dasharray="7 4"/><text x="52" y="218" font-family="Segoe UI,Arial" font-size="12" font-style="italic" fill="#7c3aed">Ray cluster  (head node + worker nodes)</text>
<rect x="60" y="232" width="228" height="92" rx="12" fill="#ede9fe" stroke="#8b5cf6" stroke-width="2" filter="url(#shadow)"/>
<text x="74" y="258" font-family="Segoe UI,Arial" font-size="16" font-weight="700" fill="#0f172a">BookingCoordinator</text>
<text x="74" y="278" font-family="Segoe UI,Arial" font-size="13" fill="#475569">book_room()</text>
<text x="74" y="297" font-family="Segoe UI,Arial" font-size="13" fill="#475569">cancel_booking()</text>
<rect x="352" y="242" width="192" height="78" rx="12" fill="#f8fafc" stroke="#94a3b8" stroke-width="2" filter="url(#shadow)"/>
<text x="366" y="268" font-family="Segoe UI,Arial" font-size="16" font-weight="700" fill="#0f172a">InventoryActor</text>
<text x="366" y="288" font-family="Segoe UI,Arial" font-size="13" fill="#475569">hotel registry</text>
<rect x="610" y="242" width="186" height="78" rx="12" fill="#dbeafe" stroke="#3b82f6" stroke-width="2" filter="url(#shadow)"/>
<text x="624" y="268" font-family="Segoe UI,Arial" font-size="16" font-weight="700" fill="#0f172a">HotelActors</text>
<text x="624" y="288" font-family="Segoe UI,Arial" font-size="13" fill="#475569">availability / holds</text>
<rect x="1014" y="242" width="182" height="78" rx="12" fill="#f8fafc" stroke="#94a3b8" stroke-width="2" filter="url(#shadow)"/>
<text x="1028" y="268" font-family="Segoe UI,Arial" font-size="16" font-weight="700" fill="#0f172a">AdminActor</text>
<text x="1028" y="288" font-family="Segoe UI,Arial" font-size="13" fill="#475569">upsert_hotel()</text>
<rect x="60" y="380" width="170" height="78" rx="12" fill="#fee2e2" stroke="#f87171" stroke-width="2" filter="url(#shadow)"/>
<text x="74" y="406" font-family="Segoe UI,Arial" font-size="16" font-weight="700" fill="#0f172a">PaymentActor</text>
<text x="74" y="426" font-family="Segoe UI,Arial" font-size="13" fill="#475569">payment sim</text>
<rect x="294" y="380" width="200" height="78" rx="12" fill="#dcfce7" stroke="#4ade80" stroke-width="2" filter="url(#shadow)"/>
<text x="308" y="406" font-family="Segoe UI,Arial" font-size="16" font-weight="700" fill="#0f172a">ReservHistory</text>
<text x="308" y="426" font-family="Segoe UI,Arial" font-size="13" fill="#475569">per-user history</text>
<rect x="562" y="380" width="178" height="78" rx="12" fill="#fef9c3" stroke="#fbbf24" stroke-width="2" filter="url(#shadow)"/>
<text x="576" y="406" font-family="Segoe UI,Arial" font-size="16" font-weight="700" fill="#0f172a">AuditLogActor</text>
<text x="576" y="426" font-family="Segoe UI,Arial" font-size="13" fill="#475569">domain events</text>
<rect x="810" y="380" width="170" height="78" rx="12" fill="#fce7f3" stroke="#f472b6" stroke-width="2" filter="url(#shadow)"/>
<text x="824" y="406" font-family="Segoe UI,Arial" font-size="16" font-weight="700" fill="#0f172a">MetricsActor</text>
<text x="824" y="426" font-family="Segoe UI,Arial" font-size="13" fill="#475569">Prometheus state</text>
<path d="M 412,160 L 412,220 L 174,220 L 174,232" stroke="#475569" stroke-width="2" fill="none" marker-end="url(#arrow)"/><rect x="257" y="197" width="72" height="22" rx="11" fill="#fff" stroke="#dde2ee" stroke-width="1.5"/><text x="293" y="214" text-anchor="middle" font-family="Segoe UI,Arial" font-size="12" fill="#334155">ray calls</text>
<path d="M 288,278 L 352,278" stroke="#475569" stroke-width="2" fill="none" marker-end="url(#arrow)"/>
<path d="M 544,282 L 610,282" stroke="#475569" stroke-width="2" fill="none" marker-end="url(#arrow)"/>
<path d="M 1105,242 L 1105,214 L 448,214 L 448,242" stroke="#475569" stroke-width="2" fill="none" marker-end="url(#arrow)"/>
<path d="M 145,324 L 145,380" stroke="#475569" stroke-width="2" fill="none" marker-end="url(#arrow)"/><rect x="132" y="341" width="72" height="22" rx="11" fill="#fff" stroke="#dde2ee" stroke-width="1.5"/><text x="168" y="358" text-anchor="middle" font-family="Segoe UI,Arial" font-size="12" fill="#334155">pay</text>
<path d="M 188,324 L 188,358 L 394,358 L 394,380" stroke="#475569" stroke-width="2" fill="none" marker-end="url(#arrow)"/><rect x="254" y="335" width="72" height="22" rx="11" fill="#fff" stroke="#dde2ee" stroke-width="1.5"/><text x="290" y="352" text-anchor="middle" font-family="Segoe UI,Arial" font-size="12" fill="#334155">hist</text>
<path d="M 210,324 L 210,354 L 651,354 L 651,380" stroke="#475569" stroke-width="2" fill="none" marker-end="url(#arrow)"/><rect x="394" y="330" width="72" height="22" rx="11" fill="#fff" stroke="#dde2ee" stroke-width="1.5"/><text x="430" y="347" text-anchor="middle" font-family="Segoe UI,Arial" font-size="12" fill="#334155">audit</text>
<path d="M 230,324 L 230,350 L 895,350 L 895,380" stroke="#475569" stroke-width="2" fill="none" marker-end="url(#arrow)"/><rect x="526" y="326" width="72" height="22" rx="11" fill="#fff" stroke="#dde2ee" stroke-width="1.5"/><text x="562" y="343" text-anchor="middle" font-family="Segoe UI,Arial" font-size="12" fill="#334155">mtx</text>
<rect x="50" y="564" width="215" height="82" rx="12" fill="#dcfce7" stroke="#16a34a" stroke-width="2" filter="url(#shadow)"/>
<text x="64" y="590" font-family="Segoe UI,Arial" font-size="16" font-weight="700" fill="#0f172a">PostgreSQL</text>
<text x="64" y="610" font-family="Segoe UI,Arial" font-size="13" fill="#475569">hotels · reservations</text>
<text x="64" y="629" font-family="Segoe UI,Arial" font-size="13" fill="#475569">audit_logs</text>
<rect x="336" y="564" width="215" height="82" rx="12" fill="#fef3c7" stroke="#f59e0b" stroke-width="2" filter="url(#shadow)"/>
<text x="350" y="590" font-family="Segoe UI,Arial" font-size="16" font-weight="700" fill="#0f172a">Monitoring</text>
<text x="350" y="610" font-family="Segoe UI,Arial" font-size="13" fill="#475569">Prometheus + Grafana</text>
<text x="350" y="629" font-family="Segoe UI,Arial" font-size="13" fill="#475569">alerts</text>
<path d="M 145,458 L 145,536 L 158,536 L 158,564" stroke="#475569" stroke-width="2" fill="none" marker-end="url(#arrow)"/><rect x="147" y="488" width="72" height="22" rx="11" fill="#fff" stroke="#dde2ee" stroke-width="1.5"/><text x="183" y="505" text-anchor="middle" font-family="Segoe UI,Arial" font-size="12" fill="#334155">SQL</text>
<path d="M 895,458 L 895,536 L 443,536 L 443,564" stroke="#475569" stroke-width="2" fill="none" marker-end="url(#arrow)"/><rect x="633" y="512" width="72" height="22" rx="11" fill="#fff" stroke="#dde2ee" stroke-width="1.5"/><text x="669" y="529" text-anchor="middle" font-family="Segoe UI,Arial" font-size="12" fill="#334155">metrics</text>
</svg>