<svg xmlns="http://www.w3.org/2000/svg" width="1200" height="720" viewBox="0 0 1200 720">
<defs>
  <marker id="arrow" viewBox="0 0 10 10" refX="9" refY="5" markerWidth="8" markerHeight="8" orient="auto-start-reverse">
    <path d="M 0 0 L 10 5 L 0 10 z" fill="#334155"/>
  </marker>
  <filter id="shadow" x="-10%" y="-10%" width="120%" height="130%">
    <feDropShadow dx="0" dy="4" stdDeviation="4" flood-color="#0f172a" flood-opacity="0.14"/>
  </filter>
</defs>
<rect width="100%" height="100%" rx="24" fill="#f8fafc"/>
<text x="40" y="52" font-family="Segoe UI, Arial" font-size="30" font-weight="700" fill="#0f172a">Normalny przeplyw rezerwacji</text>
<rect x="55" y="120" width="170" height="80" rx="18" fill="#dbeafe" stroke="#3b82f6" stroke-width="2" filter="url(#shadow)"/>
<text x="73" y="152" font-family="Segoe UI, Arial" font-size="19" font-weight="700" fill="#0f172a">1. User</text>
<text x="73" y="180" font-family="Segoe UI, Arial" font-size="15" fill="#475569">wybiera pokoj</text>
<rect x="275" y="120" width="190" height="80" rx="18" fill="#e0f2fe" stroke="#0284c7" stroke-width="2" filter="url(#shadow)"/>
<text x="293" y="152" font-family="Segoe UI, Arial" font-size="19" font-weight="700" fill="#0f172a">2. FastAPI</text>
<text x="293" y="180" font-family="Segoe UI, Arial" font-size="15" fill="#475569">JWT + request</text>
<rect x="520" y="105" width="250" height="110" rx="18" fill="#ede9fe" stroke="#8b5cf6" stroke-width="2" filter="url(#shadow)"/>
<text x="538" y="137" font-family="Segoe UI, Arial" font-size="19" font-weight="700" fill="#0f172a">3. Coordinator</text>
<text x="538" y="165" font-family="Segoe UI, Arial" font-size="15" fill="#475569">saga rezerwacji</text>
<text x="538" y="187" font-family="Segoe UI, Arial" font-size="15" fill="#475569">idempotency</text>
<rect x="830" y="85" width="220" height="90" rx="18" fill="#f1f5f9" stroke="#64748b" stroke-width="2" filter="url(#shadow)"/>
<text x="848" y="117" font-family="Segoe UI, Arial" font-size="19" font-weight="700" fill="#0f172a">4. Inventory</text>
<text x="848" y="145" font-family="Segoe UI, Arial" font-size="15" fill="#475569">hold_room()</text>
<rect x="830" y="225" width="220" height="90" rx="18" fill="#dbeafe" stroke="#2563eb" stroke-width="2" filter="url(#shadow)"/>
<text x="848" y="257" font-family="Segoe UI, Arial" font-size="19" font-weight="700" fill="#0f172a">5. HotelActor</text>
<text x="848" y="285" font-family="Segoe UI, Arial" font-size="15" fill="#475569">try_hold()</text>
<text x="848" y="307" font-family="Segoe UI, Arial" font-size="15" fill="#475569">available -= 1</text>
<rect x="520" y="300" width="250" height="90" rx="18" fill="#fee2e2" stroke="#ef4444" stroke-width="2" filter="url(#shadow)"/>
<text x="538" y="332" font-family="Segoe UI, Arial" font-size="19" font-weight="700" fill="#0f172a">6. PaymentActor</text>
<text x="538" y="360" font-family="Segoe UI, Arial" font-size="15" fill="#475569">process_payment()</text>
<rect x="830" y="395" width="220" height="90" rx="18" fill="#dcfce7" stroke="#22c55e" stroke-width="2" filter="url(#shadow)"/>
<text x="848" y="427" font-family="Segoe UI, Arial" font-size="19" font-weight="700" fill="#0f172a">7. HotelActor</text>
<text x="848" y="455" font-family="Segoe UI, Arial" font-size="15" fill="#475569">confirm_hold()</text>
<text x="848" y="477" font-family="Segoe UI, Arial" font-size="15" fill="#475569">reservation_id</text>
<rect x="520" y="505" width="250" height="90" rx="18" fill="#dcfce7" stroke="#16a34a" stroke-width="2" filter="url(#shadow)"/>
<text x="538" y="537" font-family="Segoe UI, Arial" font-size="19" font-weight="700" fill="#0f172a">8. History + DB</text>
<text x="538" y="565" font-family="Segoe UI, Arial" font-size="15" fill="#475569">save reservation</text>
<rect x="215" y="505" width="210" height="90" rx="18" fill="#fef3c7" stroke="#f59e0b" stroke-width="2" filter="url(#shadow)"/>
<text x="233" y="537" font-family="Segoe UI, Arial" font-size="19" font-weight="700" fill="#0f172a">9. Audit + Metrics</text>
<text x="233" y="565" font-family="Segoe UI, Arial" font-size="15" fill="#475569">events</text>
<text x="233" y="587" font-family="Segoe UI, Arial" font-size="15" fill="#475569">counters</text>
<rect x="55" y="505" width="130" height="90" rx="18" fill="#e0f2fe" stroke="#0284c7" stroke-width="2" filter="url(#shadow)"/>
<text x="73" y="537" font-family="Segoe UI, Arial" font-size="19" font-weight="700" fill="#0f172a">10. API</text>
<text x="73" y="565" font-family="Segoe UI, Arial" font-size="15" fill="#475569">ok=true</text>
<line x1="225" y1="160" x2="275" y2="160" stroke="#334155" stroke-width="2.2" marker-end="url(#arrow)"/>
<line x1="465" y1="160" x2="520" y2="160" stroke="#334155" stroke-width="2.2" marker-end="url(#arrow)"/>
<line x1="770" y1="160" x2="830" y2="130" stroke="#334155" stroke-width="2.2" marker-end="url(#arrow)"/><rect x="728.0" y="123.0" width="144" height="24" rx="12" fill="#ffffff" stroke="#e2e8f0"/><text x="800.0" y="140.0" text-anchor="middle" font-family="Segoe UI, Arial" font-size="13" fill="#334155">hold</text>
<line x1="940" y1="175" x2="940" y2="225" stroke="#334155" stroke-width="2.2" marker-end="url(#arrow)"/>
<line x1="830" y1="270" x2="770" y2="345" stroke="#334155" stroke-width="2.2" marker-end="url(#arrow)"/><rect x="728.0" y="285.5" width="144" height="24" rx="12" fill="#ffffff" stroke="#e2e8f0"/><text x="800.0" y="302.5" text-anchor="middle" font-family="Segoe UI, Arial" font-size="13" fill="#334155">hold_id</text>
<line x1="645" y1="215" x2="645" y2="300" stroke="#334155" stroke-width="2.2" marker-end="url(#arrow)"/><rect x="573.0" y="235.5" width="144" height="24" rx="12" fill="#ffffff" stroke="#e2e8f0"/><text x="645.0" y="252.5" text-anchor="middle" font-family="Segoe UI, Arial" font-size="13" fill="#334155">pay</text>
<line x1="770" y1="345" x2="830" y2="430" stroke="#334155" stroke-width="2.2" marker-end="url(#arrow)"/><rect x="728.0" y="365.5" width="144" height="24" rx="12" fill="#ffffff" stroke="#e2e8f0"/><text x="800.0" y="382.5" text-anchor="middle" font-family="Segoe UI, Arial" font-size="13" fill="#334155">confirm</text>
<line x1="830" y1="440" x2="770" y2="550" stroke="#334155" stroke-width="2.2" marker-end="url(#arrow)"/><rect x="728.0" y="473.0" width="144" height="24" rx="12" fill="#ffffff" stroke="#e2e8f0"/><text x="800.0" y="490.0" text-anchor="middle" font-family="Segoe UI, Arial" font-size="13" fill="#334155">confirmed</text>
<line x1="520" y1="550" x2="425" y2="550" stroke="#334155" stroke-width="2.2" marker-end="url(#arrow)"/>
<line x1="215" y1="550" x2="185" y2="550" stroke="#334155" stroke-width="2.2" marker-end="url(#arrow)"/>
</svg>