<svg xmlns="http://www.w3.org/2000/svg" width="1200" height="556" viewBox="0 0 1200 556">
<defs>
  <marker id="arrow" viewBox="0 0 10 10" refX="9" refY="5" markerWidth="8" markerHeight="8" orient="auto-start-reverse">
    <path d="M 0 0 L 10 5 L 0 10 z" fill="#475569"/>
  </marker>
  <filter id="shadow" x="-8%" y="-8%" width="120%" height="130%">
    <feDropShadow dx="0" dy="3" stdDeviation="3" flood-color="#0f172a" flood-opacity="0.10"/>
  </filter>
</defs>
<rect width="100%" height="100%" rx="20" fill="#f8fafc"/>
<text x="40" y="50" font-family="Segoe UI, Arial" font-size="26" font-weight="700" fill="#0f172a">Typy zdarzen audytowych</text>
<rect x="30" y="80" width="148" height="78" rx="12" fill="#e0f2fe" stroke="#0284c7" stroke-width="2" filter="url(#shadow)"/>
<text x="44" y="106" font-family="Segoe UI,Arial" font-size="16" font-weight="700" fill="#0f172a">Logowanie</text>
<text x="44" y="126" font-family="Segoe UI,Arial" font-size="13" fill="#475569">LOGIN</text>
<rect x="198" y="80" width="178" height="78" rx="12" fill="#f1f5f9" stroke="#64748b" stroke-width="2" filter="url(#shadow)"/>
<text x="212" y="106" font-family="Segoe UI,Arial" font-size="16" font-weight="700" fill="#0f172a">Admin</text>
<text x="212" y="126" font-family="Segoe UI,Arial" font-size="13" fill="#475569">HOTEL_UPSERTED</text>
<rect x="396" y="70" width="178" height="98" rx="12" fill="#ede9fe" stroke="#8b5cf6" stroke-width="2" filter="url(#shadow)"/>
<text x="410" y="96" font-family="Segoe UI,Arial" font-size="16" font-weight="700" fill="#0f172a">Hold</text>
<text x="410" y="116" font-family="Segoe UI,Arial" font-size="13" fill="#475569">HOLD_CREATED</text>
<text x="410" y="135" font-family="Segoe UI,Arial" font-size="13" fill="#475569">HOLD_RELEASED</text>
<text x="410" y="154" font-family="Segoe UI,Arial" font-size="13" fill="#475569">HOLD_CONFIRMED</text>
<rect x="594" y="70" width="185" height="98" rx="12" fill="#fee2e2" stroke="#ef4444" stroke-width="2" filter="url(#shadow)"/>
<text x="608" y="96" font-family="Segoe UI,Arial" font-size="16" font-weight="700" fill="#0f172a">Platnosc</text>
<text x="608" y="116" font-family="Segoe UI,Arial" font-size="13" fill="#475569">PAYMENT_SUCCESS</text>
<text x="608" y="135" font-family="Segoe UI,Arial" font-size="13" fill="#475569">PAYMENT_FAILED</text>
<text x="608" y="154" font-family="Segoe UI,Arial" font-size="13" fill="#475569">PAYMENT_REFUNDED</text>
<rect x="799" y="70" width="195" height="98" rx="12" fill="#dcfce7" stroke="#22c55e" stroke-width="2" filter="url(#shadow)"/>
<text x="813" y="96" font-family="Segoe UI,Arial" font-size="16" font-weight="700" fill="#0f172a">Rezerwacja</text>
<text x="813" y="116" font-family="Segoe UI,Arial" font-size="13" fill="#475569">RESERVATION_CREATED</text>
<text x="813" y="135" font-family="Segoe UI,Arial" font-size="13" fill="#475569">RESERVATION_CANCELLED</text>
<rect x="1014" y="80" width="155" height="78" rx="12" fill="#fee2e2" stroke="#ef4444" stroke-width="2" filter="url(#shadow)"/>
<text x="1028" y="106" font-family="Segoe UI,Arial" font-size="16" font-weight="700" fill="#0f172a">Blad zwrotu</text>
<text x="1028" y="126" font-family="Segoe UI,Arial" font-size="13" fill="#475569">REFUND_FAILED</text>
<line x1="104" y1="280" x2="1091" y2="280" stroke="#94a3b8" stroke-width="2"/>
<line x1="104" y1="158" x2="104" y2="280" stroke="#94a3b8" stroke-width="1.5"/>
<line x1="287" y1="158" x2="287" y2="280" stroke="#94a3b8" stroke-width="1.5"/>
<line x1="485" y1="168" x2="485" y2="280" stroke="#94a3b8" stroke-width="1.5"/>
<line x1="686" y1="168" x2="686" y2="280" stroke="#94a3b8" stroke-width="1.5"/>
<line x1="896" y1="168" x2="896" y2="280" stroke="#94a3b8" stroke-width="1.5"/>
<line x1="1091" y1="158" x2="1091" y2="280" stroke="#94a3b8" stroke-width="1.5"/>
<path d="M 597,280 L 597,336" stroke="#475569" stroke-width="2" fill="none" marker-end="url(#arrow)"/><rect x="561" y="296" width="72" height="22" rx="11" fill="#fff" stroke="#dde2ee" stroke-width="1.5"/><text x="597" y="313" text-anchor="middle" font-family="Segoe UI,Arial" font-size="12" fill="#334155">log(entry)</text>
<rect x="437" y="336" width="320" height="78" rx="12" fill="#fef3c7" stroke="#f59e0b" stroke-width="2" filter="url(#shadow)"/>
<text x="451" y="362" font-family="Segoe UI,Arial" font-size="16" font-weight="700" fill="#0f172a">AuditLogActor</text>
<text x="451" y="382" font-family="Segoe UI,Arial" font-size="13" fill="#475569">write_audit_log(entry)</text>
<rect x="457" y="464" width="280" height="72" rx="12" fill="#dcfce7" stroke="#16a34a" stroke-width="2" filter="url(#shadow)"/>
<text x="471" y="490" font-family="Segoe UI,Arial" font-size="16" font-weight="700" fill="#0f172a">PostgreSQL  audit_logs</text>
<text x="471" y="510" font-family="Segoe UI,Arial" font-size="13" fill="#475569">persisted domain events</text>
<path d="M 597,414 L 597,464" stroke="#475569" stroke-width="2" fill="none" marker-end="url(#arrow)"/><rect x="561" y="427" width="72" height="22" rx="11" fill="#fff" stroke="#dde2ee" stroke-width="1.5"/><text x="597" y="444" text-anchor="middle" font-family="Segoe UI,Arial" font-size="12" fill="#334155">SQL</text>
</svg>