<svg xmlns="http://www.w3.org/2000/svg" width="1200" height="620" viewBox="0 0 1200 620">
<defs>
  <marker id="arrow" viewBox="0 0 10 10" refX="9" refY="5" markerWidth="8" markerHeight="8" orient="auto-start-reverse">
    <path d="M 0 0 L 10 5 L 0 10 z" fill="#334155"/>
  </marker>
  <filter id="shadow" x="-10%" y="-10%" width="120%" height="130%">
    <feDropShadow dx="0" dy="4" stdDeviation="4" flood-color="#0f172a" flood-opacity="0.14"/>
  </filter>
</defs>
<rect width="100%" height="100%" rx="24" fill="#f8fafc"/>
<text x="40" y="52" font-family="Segoe UI, Arial" font-size="30" font-weight="700" fill="#0f172a">Typy zdarzen audytowych</text>
<rect x="75" y="120" width="210" height="85" rx="18" fill="#e0f2fe" stroke="#0284c7" stroke-width="2" filter="url(#shadow)"/>
<text x="93" y="152" font-family="Segoe UI, Arial" font-size="19" font-weight="700" fill="#0f172a">Logowanie</text>
<text x="93" y="180" font-family="Segoe UI, Arial" font-size="15" fill="#475569">LOGIN</text>
<rect x="350" y="120" width="220" height="85" rx="18" fill="#f1f5f9" stroke="#64748b" stroke-width="2" filter="url(#shadow)"/>
<text x="368" y="152" font-family="Segoe UI, Arial" font-size="19" font-weight="700" fill="#0f172a">Admin</text>
<text x="368" y="180" font-family="Segoe UI, Arial" font-size="15" fill="#475569">HOTEL_UPSERTED</text>
<rect x="650" y="105" width="220" height="115" rx="18" fill="#ede9fe" stroke="#8b5cf6" stroke-width="2" filter="url(#shadow)"/>
<text x="668" y="137" font-family="Segoe UI, Arial" font-size="19" font-weight="700" fill="#0f172a">Hold</text>
<text x="668" y="165" font-family="Segoe UI, Arial" font-size="15" fill="#475569">HOLD_CREATED</text>
<text x="668" y="187" font-family="Segoe UI, Arial" font-size="15" fill="#475569">HOLD_RELEASED</text>
<text x="668" y="209" font-family="Segoe UI, Arial" font-size="15" fill="#475569">HOLD_CONFIRMED</text>
<rect x="930" y="105" width="220" height="115" rx="18" fill="#fee2e2" stroke="#ef4444" stroke-width="2" filter="url(#shadow)"/>
<text x="948" y="137" font-family="Segoe UI, Arial" font-size="19" font-weight="700" fill="#0f172a">Platnosc</text>
<text x="948" y="165" font-family="Segoe UI, Arial" font-size="15" fill="#475569">PAYMENT_SUCCESS</text>
<text x="948" y="187" font-family="Segoe UI, Arial" font-size="15" fill="#475569">PAYMENT_FAILED</text>
<text x="948" y="209" font-family="Segoe UI, Arial" font-size="15" fill="#475569">PAYMENT_REFUNDED</text>
<rect x="255" y="350" width="250" height="105" rx="18" fill="#dcfce7" stroke="#22c55e" stroke-width="2" filter="url(#shadow)"/>
<text x="273" y="382" font-family="Segoe UI, Arial" font-size="19" font-weight="700" fill="#0f172a">Rezerwacja</text>
<text x="273" y="410" font-family="Segoe UI, Arial" font-size="15" fill="#475569">RESERVATION_CREATED</text>
<text x="273" y="432" font-family="Segoe UI, Arial" font-size="15" fill="#475569">RESERVATION_CANCELLED</text>
<rect x="610" y="350" width="250" height="105" rx="18" fill="#fee2e2" stroke="#ef4444" stroke-width="2" filter="url(#shadow)"/>
<text x="628" y="382" font-family="Segoe UI, Arial" font-size="19" font-weight="700" fill="#0f172a">Awaria zwrotu</text>
<text x="628" y="410" font-family="Segoe UI, Arial" font-size="15" fill="#475569">REFUND_FAILED</text>
<rect x="430" y="500" width="300" height="75" rx="18" fill="#fef3c7" stroke="#f59e0b" stroke-width="2" filter="url(#shadow)"/>
<text x="448" y="532" font-family="Segoe UI, Arial" font-size="19" font-weight="700" fill="#0f172a">AuditLogActor</text>
<text x="448" y="560" font-family="Segoe UI, Arial" font-size="15" fill="#475569">write_audit_log(entry)</text>
<line x1="180" y1="205" x2="515" y2="500" stroke="#334155" stroke-width="2.2" marker-end="url(#arrow)"/>
<line x1="460" y1="205" x2="540" y2="500" stroke="#334155" stroke-width="2.2" marker-end="url(#arrow)"/>
<line x1="760" y1="220" x2="585" y2="500" stroke="#334155" stroke-width="2.2" marker-end="url(#arrow)"/>
<line x1="1040" y1="220" x2="640" y2="500" stroke="#334155" stroke-width="2.2" marker-end="url(#arrow)"/>
<line x1="380" y1="455" x2="540" y2="500" stroke="#334155" stroke-width="2.2" marker-end="url(#arrow)"/>
<line x1="735" y1="455" x2="640" y2="500" stroke="#334155" stroke-width="2.2" marker-end="url(#arrow)"/>
</svg>